<mxfile host="Electron" modified="2024-01-09T06:28:30.614Z" agent="Mozilla/5.0 (Windows NT 10.0; Win64; x64) AppleWebKit/537.36 (KHTML, like Gecko) draw.io/22.1.11 Chrome/114.0.5735.289 Electron/25.9.8 Safari/537.36" etag="kBXX3IJRKFwxLDWRlTYT" version="22.1.11" type="device">
  <diagram name="第 1 页" id="Fb_YKiBA0_kdBKizJHy4">
    <mxGraphModel dx="1434" dy="844" grid="1" gridSize="10" guides="1" tooltips="1" connect="1" arrows="1" fold="1" page="1" pageScale="1" pageWidth="827" pageHeight="1169" math="0" shadow="0">
      <root>
        <mxCell id="0" />
        <mxCell id="1" parent="0" />
        <mxCell id="CQV64KY_DCy__k1zn6Uw-1" value="ISoldier" style="swimlane;fontStyle=1;align=center;verticalAlign=top;childLayout=stackLayout;horizontal=1;startSize=26;horizontalStack=0;resizeParent=1;resizeParentMax=0;resizeLast=0;collapsible=1;marginBottom=0;whiteSpace=wrap;html=1;" vertex="1" parent="1">
          <mxGeometry x="80" y="200" width="160" height="112" as="geometry" />
        </mxCell>
        <mxCell id="CQV64KY_DCy__k1zn6Uw-3" value="" style="line;strokeWidth=1;fillColor=none;align=left;verticalAlign=middle;spacingTop=-1;spacingLeft=3;spacingRight=3;rotatable=0;labelPosition=right;points=[];portConstraint=eastwest;strokeColor=inherit;" vertex="1" parent="CQV64KY_DCy__k1zn6Uw-1">
          <mxGeometry y="26" width="160" height="8" as="geometry" />
        </mxCell>
        <mxCell id="CQV64KY_DCy__k1zn6Uw-4" value="+DoPlayKilledSound()" style="text;strokeColor=none;fillColor=none;align=left;verticalAlign=top;spacingLeft=4;spacingRight=4;overflow=hidden;rotatable=0;points=[[0,0.5],[1,0.5]];portConstraint=eastwest;whiteSpace=wrap;html=1;" vertex="1" parent="CQV64KY_DCy__k1zn6Uw-1">
          <mxGeometry y="34" width="160" height="26" as="geometry" />
        </mxCell>
        <mxCell id="CQV64KY_DCy__k1zn6Uw-5" value="+DoShowKilledEffect()" style="text;strokeColor=none;fillColor=none;align=left;verticalAlign=top;spacingLeft=4;spacingRight=4;overflow=hidden;rotatable=0;points=[[0,0.5],[1,0.5]];portConstraint=eastwest;whiteSpace=wrap;html=1;" vertex="1" parent="CQV64KY_DCy__k1zn6Uw-1">
          <mxGeometry y="60" width="160" height="26" as="geometry" />
        </mxCell>
        <mxCell id="CQV64KY_DCy__k1zn6Uw-6" value="+RunVisitor()" style="text;strokeColor=none;fillColor=none;align=left;verticalAlign=top;spacingLeft=4;spacingRight=4;overflow=hidden;rotatable=0;points=[[0,0.5],[1,0.5]];portConstraint=eastwest;whiteSpace=wrap;html=1;" vertex="1" parent="CQV64KY_DCy__k1zn6Uw-1">
          <mxGeometry y="86" width="160" height="26" as="geometry" />
        </mxCell>
        <mxCell id="CQV64KY_DCy__k1zn6Uw-48" style="edgeStyle=none;rounded=0;orthogonalLoop=1;jettySize=auto;html=1;endArrow=block;endFill=0;" edge="1" parent="1" source="CQV64KY_DCy__k1zn6Uw-7" target="CQV64KY_DCy__k1zn6Uw-1">
          <mxGeometry relative="1" as="geometry" />
        </mxCell>
        <mxCell id="CQV64KY_DCy__k1zn6Uw-7" value="SoldierCaptain" style="swimlane;fontStyle=1;align=center;verticalAlign=top;childLayout=stackLayout;horizontal=1;startSize=26;horizontalStack=0;resizeParent=1;resizeParentMax=0;resizeLast=0;collapsible=1;marginBottom=0;whiteSpace=wrap;html=1;" vertex="1" parent="1">
          <mxGeometry y="360" width="160" height="34" as="geometry" />
        </mxCell>
        <mxCell id="CQV64KY_DCy__k1zn6Uw-9" value="" style="line;strokeWidth=1;fillColor=none;align=left;verticalAlign=middle;spacingTop=-1;spacingLeft=3;spacingRight=3;rotatable=0;labelPosition=right;points=[];portConstraint=eastwest;strokeColor=inherit;" vertex="1" parent="CQV64KY_DCy__k1zn6Uw-7">
          <mxGeometry y="26" width="160" height="8" as="geometry" />
        </mxCell>
        <mxCell id="CQV64KY_DCy__k1zn6Uw-50" style="edgeStyle=none;rounded=0;orthogonalLoop=1;jettySize=auto;html=1;endArrow=block;endFill=0;" edge="1" parent="1" source="CQV64KY_DCy__k1zn6Uw-11" target="CQV64KY_DCy__k1zn6Uw-1">
          <mxGeometry relative="1" as="geometry" />
        </mxCell>
        <mxCell id="CQV64KY_DCy__k1zn6Uw-11" value="SoldierRookie" style="swimlane;fontStyle=1;align=center;verticalAlign=top;childLayout=stackLayout;horizontal=1;startSize=26;horizontalStack=0;resizeParent=1;resizeParentMax=0;resizeLast=0;collapsible=1;marginBottom=0;whiteSpace=wrap;html=1;" vertex="1" parent="1">
          <mxGeometry y="490" width="160" height="34" as="geometry" />
        </mxCell>
        <mxCell id="CQV64KY_DCy__k1zn6Uw-12" value="" style="line;strokeWidth=1;fillColor=none;align=left;verticalAlign=middle;spacingTop=-1;spacingLeft=3;spacingRight=3;rotatable=0;labelPosition=right;points=[];portConstraint=eastwest;strokeColor=inherit;" vertex="1" parent="CQV64KY_DCy__k1zn6Uw-11">
          <mxGeometry y="26" width="160" height="8" as="geometry" />
        </mxCell>
        <mxCell id="CQV64KY_DCy__k1zn6Uw-49" style="edgeStyle=none;rounded=0;orthogonalLoop=1;jettySize=auto;html=1;endArrow=block;endFill=0;" edge="1" parent="1" source="CQV64KY_DCy__k1zn6Uw-13" target="CQV64KY_DCy__k1zn6Uw-1">
          <mxGeometry relative="1" as="geometry" />
        </mxCell>
        <mxCell id="CQV64KY_DCy__k1zn6Uw-13" value="SoldierSergeant" style="swimlane;fontStyle=1;align=center;verticalAlign=top;childLayout=stackLayout;horizontal=1;startSize=26;horizontalStack=0;resizeParent=1;resizeParentMax=0;resizeLast=0;collapsible=1;marginBottom=0;whiteSpace=wrap;html=1;" vertex="1" parent="1">
          <mxGeometry x="110" y="430" width="160" height="34" as="geometry" />
        </mxCell>
        <mxCell id="CQV64KY_DCy__k1zn6Uw-14" value="" style="line;strokeWidth=1;fillColor=none;align=left;verticalAlign=middle;spacingTop=-1;spacingLeft=3;spacingRight=3;rotatable=0;labelPosition=right;points=[];portConstraint=eastwest;strokeColor=inherit;" vertex="1" parent="CQV64KY_DCy__k1zn6Uw-13">
          <mxGeometry y="26" width="160" height="8" as="geometry" />
        </mxCell>
        <mxCell id="CQV64KY_DCy__k1zn6Uw-52" style="edgeStyle=none;rounded=0;orthogonalLoop=1;jettySize=auto;html=1;endArrow=diamondThin;endFill=0;" edge="1" parent="1" source="CQV64KY_DCy__k1zn6Uw-15" target="CQV64KY_DCy__k1zn6Uw-20">
          <mxGeometry relative="1" as="geometry" />
        </mxCell>
        <mxCell id="CQV64KY_DCy__k1zn6Uw-15" value="IEnemy" style="swimlane;fontStyle=1;align=center;verticalAlign=top;childLayout=stackLayout;horizontal=1;startSize=26;horizontalStack=0;resizeParent=1;resizeParentMax=0;resizeLast=0;collapsible=1;marginBottom=0;whiteSpace=wrap;html=1;" vertex="1" parent="1">
          <mxGeometry x="280" y="200" width="160" height="112" as="geometry" />
        </mxCell>
        <mxCell id="CQV64KY_DCy__k1zn6Uw-16" value="" style="line;strokeWidth=1;fillColor=none;align=left;verticalAlign=middle;spacingTop=-1;spacingLeft=3;spacingRight=3;rotatable=0;labelPosition=right;points=[];portConstraint=eastwest;strokeColor=inherit;" vertex="1" parent="CQV64KY_DCy__k1zn6Uw-15">
          <mxGeometry y="26" width="160" height="8" as="geometry" />
        </mxCell>
        <mxCell id="CQV64KY_DCy__k1zn6Uw-17" value="+DoPlayHitSound()" style="text;strokeColor=none;fillColor=none;align=left;verticalAlign=top;spacingLeft=4;spacingRight=4;overflow=hidden;rotatable=0;points=[[0,0.5],[1,0.5]];portConstraint=eastwest;whiteSpace=wrap;html=1;" vertex="1" parent="CQV64KY_DCy__k1zn6Uw-15">
          <mxGeometry y="34" width="160" height="26" as="geometry" />
        </mxCell>
        <mxCell id="CQV64KY_DCy__k1zn6Uw-18" value="+DoShowHitEffect()" style="text;strokeColor=none;fillColor=none;align=left;verticalAlign=top;spacingLeft=4;spacingRight=4;overflow=hidden;rotatable=0;points=[[0,0.5],[1,0.5]];portConstraint=eastwest;whiteSpace=wrap;html=1;" vertex="1" parent="CQV64KY_DCy__k1zn6Uw-15">
          <mxGeometry y="60" width="160" height="26" as="geometry" />
        </mxCell>
        <mxCell id="CQV64KY_DCy__k1zn6Uw-19" value="+RunVisitor()" style="text;strokeColor=none;fillColor=none;align=left;verticalAlign=top;spacingLeft=4;spacingRight=4;overflow=hidden;rotatable=0;points=[[0,0.5],[1,0.5]];portConstraint=eastwest;whiteSpace=wrap;html=1;" vertex="1" parent="CQV64KY_DCy__k1zn6Uw-15">
          <mxGeometry y="86" width="160" height="26" as="geometry" />
        </mxCell>
        <mxCell id="CQV64KY_DCy__k1zn6Uw-51" style="edgeStyle=none;rounded=0;orthogonalLoop=1;jettySize=auto;html=1;endArrow=block;endFill=0;" edge="1" parent="1" source="CQV64KY_DCy__k1zn6Uw-20" target="CQV64KY_DCy__k1zn6Uw-1">
          <mxGeometry relative="1" as="geometry" />
        </mxCell>
        <mxCell id="CQV64KY_DCy__k1zn6Uw-20" value="SoldierCaptive" style="swimlane;fontStyle=1;align=center;verticalAlign=top;childLayout=stackLayout;horizontal=1;startSize=26;horizontalStack=0;resizeParent=1;resizeParentMax=0;resizeLast=0;collapsible=1;marginBottom=0;whiteSpace=wrap;html=1;" vertex="1" parent="1">
          <mxGeometry x="280" y="360" width="160" height="142" as="geometry" />
        </mxCell>
        <mxCell id="CQV64KY_DCy__k1zn6Uw-25" value="-captive" style="text;html=1;strokeColor=none;fillColor=none;align=left;verticalAlign=middle;whiteSpace=wrap;rounded=0;spacingLeft=4;spacingRight=4;" vertex="1" parent="CQV64KY_DCy__k1zn6Uw-20">
          <mxGeometry y="26" width="160" height="30" as="geometry" />
        </mxCell>
        <mxCell id="CQV64KY_DCy__k1zn6Uw-21" value="" style="line;strokeWidth=1;fillColor=none;align=left;verticalAlign=middle;spacingTop=-1;spacingLeft=3;spacingRight=3;rotatable=0;labelPosition=right;points=[];portConstraint=eastwest;strokeColor=inherit;" vertex="1" parent="CQV64KY_DCy__k1zn6Uw-20">
          <mxGeometry y="56" width="160" height="8" as="geometry" />
        </mxCell>
        <mxCell id="CQV64KY_DCy__k1zn6Uw-22" value="+DoPlayKilledSound()" style="text;strokeColor=none;fillColor=none;align=left;verticalAlign=top;spacingLeft=4;spacingRight=4;overflow=hidden;rotatable=0;points=[[0,0.5],[1,0.5]];portConstraint=eastwest;whiteSpace=wrap;html=1;" vertex="1" parent="CQV64KY_DCy__k1zn6Uw-20">
          <mxGeometry y="64" width="160" height="26" as="geometry" />
        </mxCell>
        <mxCell id="CQV64KY_DCy__k1zn6Uw-23" value="+DoShowKilledEffect()" style="text;strokeColor=none;fillColor=none;align=left;verticalAlign=top;spacingLeft=4;spacingRight=4;overflow=hidden;rotatable=0;points=[[0,0.5],[1,0.5]];portConstraint=eastwest;whiteSpace=wrap;html=1;" vertex="1" parent="CQV64KY_DCy__k1zn6Uw-20">
          <mxGeometry y="90" width="160" height="26" as="geometry" />
        </mxCell>
        <mxCell id="CQV64KY_DCy__k1zn6Uw-24" value="+RunVisitor()" style="text;strokeColor=none;fillColor=none;align=left;verticalAlign=top;spacingLeft=4;spacingRight=4;overflow=hidden;rotatable=0;points=[[0,0.5],[1,0.5]];portConstraint=eastwest;whiteSpace=wrap;html=1;" vertex="1" parent="CQV64KY_DCy__k1zn6Uw-20">
          <mxGeometry y="116" width="160" height="26" as="geometry" />
        </mxCell>
        <mxCell id="CQV64KY_DCy__k1zn6Uw-26" value="ITrainCommand" style="swimlane;fontStyle=1;align=center;verticalAlign=top;childLayout=stackLayout;horizontal=1;startSize=26;horizontalStack=0;resizeParent=1;resizeParentMax=0;resizeLast=0;collapsible=1;marginBottom=0;whiteSpace=wrap;html=1;" vertex="1" parent="1">
          <mxGeometry x="490" y="200" width="160" height="34" as="geometry" />
        </mxCell>
        <mxCell id="CQV64KY_DCy__k1zn6Uw-28" value="" style="line;strokeWidth=1;fillColor=none;align=left;verticalAlign=middle;spacingTop=-1;spacingLeft=3;spacingRight=3;rotatable=0;labelPosition=right;points=[];portConstraint=eastwest;strokeColor=inherit;" vertex="1" parent="CQV64KY_DCy__k1zn6Uw-26">
          <mxGeometry y="26" width="160" height="8" as="geometry" />
        </mxCell>
        <mxCell id="CQV64KY_DCy__k1zn6Uw-56" style="edgeStyle=none;rounded=0;orthogonalLoop=1;jettySize=auto;html=1;endArrow=block;endFill=0;" edge="1" parent="1" source="CQV64KY_DCy__k1zn6Uw-30" target="CQV64KY_DCy__k1zn6Uw-26">
          <mxGeometry relative="1" as="geometry" />
        </mxCell>
        <mxCell id="CQV64KY_DCy__k1zn6Uw-30" value="TrainSoldierCommand" style="swimlane;fontStyle=1;align=center;verticalAlign=top;childLayout=stackLayout;horizontal=1;startSize=26;horizontalStack=0;resizeParent=1;resizeParentMax=0;resizeLast=0;collapsible=1;marginBottom=0;whiteSpace=wrap;html=1;" vertex="1" parent="1">
          <mxGeometry x="610" y="320" width="160" height="34" as="geometry" />
        </mxCell>
        <mxCell id="CQV64KY_DCy__k1zn6Uw-31" value="" style="line;strokeWidth=1;fillColor=none;align=left;verticalAlign=middle;spacingTop=-1;spacingLeft=3;spacingRight=3;rotatable=0;labelPosition=right;points=[];portConstraint=eastwest;strokeColor=inherit;" vertex="1" parent="CQV64KY_DCy__k1zn6Uw-30">
          <mxGeometry y="26" width="160" height="8" as="geometry" />
        </mxCell>
        <mxCell id="CQV64KY_DCy__k1zn6Uw-53" style="edgeStyle=none;rounded=0;orthogonalLoop=1;jettySize=auto;html=1;endArrow=open;endFill=0;" edge="1" parent="1" source="CQV64KY_DCy__k1zn6Uw-32" target="CQV64KY_DCy__k1zn6Uw-20">
          <mxGeometry relative="1" as="geometry" />
        </mxCell>
        <mxCell id="CQV64KY_DCy__k1zn6Uw-55" style="edgeStyle=none;rounded=0;orthogonalLoop=1;jettySize=auto;html=1;endArrow=block;endFill=0;" edge="1" parent="1" source="CQV64KY_DCy__k1zn6Uw-32" target="CQV64KY_DCy__k1zn6Uw-26">
          <mxGeometry relative="1" as="geometry" />
        </mxCell>
        <mxCell id="CQV64KY_DCy__k1zn6Uw-32" value="TrainCaptiveCommand" style="swimlane;fontStyle=1;align=center;verticalAlign=top;childLayout=stackLayout;horizontal=1;startSize=26;horizontalStack=0;resizeParent=1;resizeParentMax=0;resizeLast=0;collapsible=1;marginBottom=0;whiteSpace=wrap;html=1;" vertex="1" parent="1">
          <mxGeometry x="490" y="414" width="160" height="34" as="geometry" />
        </mxCell>
        <mxCell id="CQV64KY_DCy__k1zn6Uw-33" value="" style="line;strokeWidth=1;fillColor=none;align=left;verticalAlign=middle;spacingTop=-1;spacingLeft=3;spacingRight=3;rotatable=0;labelPosition=right;points=[];portConstraint=eastwest;strokeColor=inherit;" vertex="1" parent="CQV64KY_DCy__k1zn6Uw-32">
          <mxGeometry y="26" width="160" height="8" as="geometry" />
        </mxCell>
        <mxCell id="CQV64KY_DCy__k1zn6Uw-34" value="ICamp" style="swimlane;fontStyle=1;align=center;verticalAlign=top;childLayout=stackLayout;horizontal=1;startSize=26;horizontalStack=0;resizeParent=1;resizeParentMax=0;resizeLast=0;collapsible=1;marginBottom=0;whiteSpace=wrap;html=1;" vertex="1" parent="1">
          <mxGeometry x="840" y="200" width="160" height="34" as="geometry" />
        </mxCell>
        <mxCell id="CQV64KY_DCy__k1zn6Uw-35" value="" style="line;strokeWidth=1;fillColor=none;align=left;verticalAlign=middle;spacingTop=-1;spacingLeft=3;spacingRight=3;rotatable=0;labelPosition=right;points=[];portConstraint=eastwest;strokeColor=inherit;" vertex="1" parent="CQV64KY_DCy__k1zn6Uw-34">
          <mxGeometry y="26" width="160" height="8" as="geometry" />
        </mxCell>
        <mxCell id="CQV64KY_DCy__k1zn6Uw-57" style="edgeStyle=none;rounded=0;orthogonalLoop=1;jettySize=auto;html=1;endArrow=open;endFill=0;" edge="1" parent="1" source="CQV64KY_DCy__k1zn6Uw-36" target="CQV64KY_DCy__k1zn6Uw-32">
          <mxGeometry relative="1" as="geometry" />
        </mxCell>
        <mxCell id="CQV64KY_DCy__k1zn6Uw-58" style="edgeStyle=none;rounded=0;orthogonalLoop=1;jettySize=auto;html=1;endArrow=block;endFill=0;" edge="1" parent="1" source="CQV64KY_DCy__k1zn6Uw-36" target="CQV64KY_DCy__k1zn6Uw-34">
          <mxGeometry relative="1" as="geometry" />
        </mxCell>
        <mxCell id="CQV64KY_DCy__k1zn6Uw-60" style="edgeStyle=none;rounded=0;orthogonalLoop=1;jettySize=auto;html=1;endArrow=diamondThin;endFill=1;" edge="1" parent="1" source="CQV64KY_DCy__k1zn6Uw-36" target="CQV64KY_DCy__k1zn6Uw-40">
          <mxGeometry relative="1" as="geometry" />
        </mxCell>
        <mxCell id="CQV64KY_DCy__k1zn6Uw-36" value="CaptiveCamp" style="swimlane;fontStyle=1;align=center;verticalAlign=top;childLayout=stackLayout;horizontal=1;startSize=26;horizontalStack=0;resizeParent=1;resizeParentMax=0;resizeLast=0;collapsible=1;marginBottom=0;whiteSpace=wrap;html=1;" vertex="1" parent="1">
          <mxGeometry x="720" y="414" width="160" height="34" as="geometry" />
        </mxCell>
        <mxCell id="CQV64KY_DCy__k1zn6Uw-37" value="" style="line;strokeWidth=1;fillColor=none;align=left;verticalAlign=middle;spacingTop=-1;spacingLeft=3;spacingRight=3;rotatable=0;labelPosition=right;points=[];portConstraint=eastwest;strokeColor=inherit;" vertex="1" parent="CQV64KY_DCy__k1zn6Uw-36">
          <mxGeometry y="26" width="160" height="8" as="geometry" />
        </mxCell>
        <mxCell id="CQV64KY_DCy__k1zn6Uw-59" style="edgeStyle=none;rounded=0;orthogonalLoop=1;jettySize=auto;html=1;endArrow=block;endFill=0;" edge="1" parent="1" source="CQV64KY_DCy__k1zn6Uw-38" target="CQV64KY_DCy__k1zn6Uw-34">
          <mxGeometry relative="1" as="geometry" />
        </mxCell>
        <mxCell id="CQV64KY_DCy__k1zn6Uw-61" style="edgeStyle=none;rounded=0;orthogonalLoop=1;jettySize=auto;html=1;endArrow=diamondThin;endFill=1;" edge="1" parent="1" source="CQV64KY_DCy__k1zn6Uw-38" target="CQV64KY_DCy__k1zn6Uw-40">
          <mxGeometry relative="1" as="geometry" />
        </mxCell>
        <mxCell id="CQV64KY_DCy__k1zn6Uw-38" value="SoldierCamp" style="swimlane;fontStyle=1;align=center;verticalAlign=top;childLayout=stackLayout;horizontal=1;startSize=26;horizontalStack=0;resizeParent=1;resizeParentMax=0;resizeLast=0;collapsible=1;marginBottom=0;whiteSpace=wrap;html=1;" vertex="1" parent="1">
          <mxGeometry x="960" y="414" width="160" height="34" as="geometry" />
        </mxCell>
        <mxCell id="CQV64KY_DCy__k1zn6Uw-39" value="" style="line;strokeWidth=1;fillColor=none;align=left;verticalAlign=middle;spacingTop=-1;spacingLeft=3;spacingRight=3;rotatable=0;labelPosition=right;points=[];portConstraint=eastwest;strokeColor=inherit;" vertex="1" parent="CQV64KY_DCy__k1zn6Uw-38">
          <mxGeometry y="26" width="160" height="8" as="geometry" />
        </mxCell>
        <mxCell id="CQV64KY_DCy__k1zn6Uw-40" value="CampSystem" style="swimlane;fontStyle=1;align=center;verticalAlign=top;childLayout=stackLayout;horizontal=1;startSize=26;horizontalStack=0;resizeParent=1;resizeParentMax=0;resizeLast=0;collapsible=1;marginBottom=0;whiteSpace=wrap;html=1;" vertex="1" parent="1">
          <mxGeometry x="840" y="530" width="160" height="34" as="geometry" />
        </mxCell>
        <mxCell id="CQV64KY_DCy__k1zn6Uw-41" value="" style="line;strokeWidth=1;fillColor=none;align=left;verticalAlign=middle;spacingTop=-1;spacingLeft=3;spacingRight=3;rotatable=0;labelPosition=right;points=[];portConstraint=eastwest;strokeColor=inherit;" vertex="1" parent="CQV64KY_DCy__k1zn6Uw-40">
          <mxGeometry y="26" width="160" height="8" as="geometry" />
        </mxCell>
        <mxCell id="CQV64KY_DCy__k1zn6Uw-42" value="IGameEventObserver" style="swimlane;fontStyle=1;align=center;verticalAlign=top;childLayout=stackLayout;horizontal=1;startSize=26;horizontalStack=0;resizeParent=1;resizeParentMax=0;resizeLast=0;collapsible=1;marginBottom=0;whiteSpace=wrap;html=1;" vertex="1" parent="1">
          <mxGeometry x="480" y="600" width="160" height="34" as="geometry" />
        </mxCell>
        <mxCell id="CQV64KY_DCy__k1zn6Uw-43" value="" style="line;strokeWidth=1;fillColor=none;align=left;verticalAlign=middle;spacingTop=-1;spacingLeft=3;spacingRight=3;rotatable=0;labelPosition=right;points=[];portConstraint=eastwest;strokeColor=inherit;" vertex="1" parent="CQV64KY_DCy__k1zn6Uw-42">
          <mxGeometry y="26" width="160" height="8" as="geometry" />
        </mxCell>
        <mxCell id="CQV64KY_DCy__k1zn6Uw-62" style="edgeStyle=none;rounded=0;orthogonalLoop=1;jettySize=auto;html=1;endArrow=none;endFill=0;" edge="1" parent="1" source="CQV64KY_DCy__k1zn6Uw-44" target="CQV64KY_DCy__k1zn6Uw-42">
          <mxGeometry relative="1" as="geometry" />
        </mxCell>
        <mxCell id="CQV64KY_DCy__k1zn6Uw-44" value="EnemyKilledSubject" style="swimlane;fontStyle=1;align=center;verticalAlign=top;childLayout=stackLayout;horizontal=1;startSize=26;horizontalStack=0;resizeParent=1;resizeParentMax=0;resizeLast=0;collapsible=1;marginBottom=0;whiteSpace=wrap;html=1;" vertex="1" parent="1">
          <mxGeometry x="240" y="600" width="160" height="34" as="geometry" />
        </mxCell>
        <mxCell id="CQV64KY_DCy__k1zn6Uw-45" value="" style="line;strokeWidth=1;fillColor=none;align=left;verticalAlign=middle;spacingTop=-1;spacingLeft=3;spacingRight=3;rotatable=0;labelPosition=right;points=[];portConstraint=eastwest;strokeColor=inherit;" vertex="1" parent="CQV64KY_DCy__k1zn6Uw-44">
          <mxGeometry y="26" width="160" height="8" as="geometry" />
        </mxCell>
        <mxCell id="CQV64KY_DCy__k1zn6Uw-63" style="edgeStyle=none;rounded=0;orthogonalLoop=1;jettySize=auto;html=1;endArrow=block;endFill=0;" edge="1" parent="1" source="CQV64KY_DCy__k1zn6Uw-46" target="CQV64KY_DCy__k1zn6Uw-42">
          <mxGeometry relative="1" as="geometry" />
        </mxCell>
        <mxCell id="CQV64KY_DCy__k1zn6Uw-64" style="edgeStyle=none;rounded=0;orthogonalLoop=1;jettySize=auto;html=1;exitX=0.75;exitY=0;exitDx=0;exitDy=0;endArrow=none;endFill=0;" edge="1" parent="1" source="CQV64KY_DCy__k1zn6Uw-46" target="CQV64KY_DCy__k1zn6Uw-40">
          <mxGeometry relative="1" as="geometry" />
        </mxCell>
        <mxCell id="CQV64KY_DCy__k1zn6Uw-46" value="EnemyKilledObserverCaptiveCamp" style="swimlane;fontStyle=1;align=center;verticalAlign=top;childLayout=stackLayout;horizontal=1;startSize=26;horizontalStack=0;resizeParent=1;resizeParentMax=0;resizeLast=0;collapsible=1;marginBottom=0;whiteSpace=wrap;html=1;" vertex="1" parent="1">
          <mxGeometry x="420" y="680" width="280" height="34" as="geometry" />
        </mxCell>
        <mxCell id="CQV64KY_DCy__k1zn6Uw-47" value="" style="line;strokeWidth=1;fillColor=none;align=left;verticalAlign=middle;spacingTop=-1;spacingLeft=3;spacingRight=3;rotatable=0;labelPosition=right;points=[];portConstraint=eastwest;strokeColor=inherit;" vertex="1" parent="CQV64KY_DCy__k1zn6Uw-46">
          <mxGeometry y="26" width="280" height="8" as="geometry" />
        </mxCell>
      </root>
    </mxGraphModel>
  </diagram>
</mxfile>
